<?xml version="1.0" standalone="no"?><!DOCTYPE svg PUBLIC "-//W3C//DTD SVG 1.1//EN" "http://www.w3.org/Graphics/SVG/1.1/DTD/svg11.dtd"><svg t="1538561354811" class="icon" style="" viewBox="0 0 1024 1024" version="1.1" xmlns="http://www.w3.org/2000/svg" p-id="1754" xmlns:xlink="http://www.w3.org/1999/xlink" width="200" height="200"><defs><style type="text/css"></style></defs><path d="M769.008468 735.315088c0 65.342194-41.145096 128.187521-106.494453 128.187521L386.753461 863.502609c-130.663922 0-130.526799-128.187521-130.526799-128.187521L256.226662 350.72899l-64.097854 0 0 384.586099c0 138.300856 93.767594 192.292538 194.624652 192.292538l275.759531 0c100.852966 0 170.58412-91.443665 170.58412-192.292538L833.097112 350.72899l-64.089667 0L769.007445 735.315088z" p-id="1755"></path><path d="M704.910615 95.336322 320.324516 94.338598 320.324516 158.436452 704.910615 158.436452Z" p-id="1756"></path><path d="M320.324516 350.72899l64.097854 0 0 384.586099-64.097854 0 0-384.586099Z" p-id="1757"></path><path d="M448.520223 350.72899l128.195707 0 0 384.586099-128.195707 0 0-384.586099Z" p-id="1758"></path><path d="M63.934125 222.533282 63.934125 286.631136 961.292819 286.631136 961.292819 223.527936Z" p-id="1759"></path><path d="M640.812761 350.72899l64.097854 0 0 384.586099-64.097854 0 0-384.586099Z" p-id="1760"></path></svg>