<?xml version="1.0" standalone="no"?><!DOCTYPE svg PUBLIC "-//W3C//DTD SVG 1.1//EN" "http://www.w3.org/Graphics/SVG/1.1/DTD/svg11.dtd"><svg t="1538278575697" class="icon" style="" viewBox="0 0 1024 1024" version="1.1" xmlns="http://www.w3.org/2000/svg" p-id="1041" xmlns:xlink="http://www.w3.org/1999/xlink" width="200" height="200"><defs><style type="text/css"></style></defs><path d="M510.4 1004.8C264 1004.8 64 804.8 64 558.4 64 371.2 179.2 211.2 340.8 144c4.8-1.6 9.6-3.2 16-3.2 25.6 0 46.4 20.8 46.4 46.4 0 20.8-12.8 36.8-30.4 43.2-128 56-217.6 180.8-217.6 328 0 195.2 158.4 355.2 355.2 355.2s355.2-158.4 355.2-355.2c0-147.2-89.6-272-216-326.4-17.6-6.4-30.4-24-30.4-43.2 0-25.6 20.8-46.4 46.4-46.4 4.8 0 11.2 1.6 16 3.2C846.4 212.8 960 372.8 960 560c-1.6 244.8-201.6 444.8-449.6 444.8z m0-476.8c-25.6 0-46.4-20.8-46.4-46.4v-416c0-25.6 20.8-46.4 46.4-46.4s46.4 20.8 46.4 46.4v416c1.6 25.6-19.2 46.4-46.4 46.4z" fill="#333333" p-id="1042"></path></svg>